<?xml version="1.0" encoding="UTF-8" standalone="no"?>
<svg
   xmlns:dc="http://purl.org/dc/elements/1.1/"
   xmlns:cc="http://creativecommons.org/ns#"
   xmlns:rdf="http://www.w3.org/1999/02/22-rdf-syntax-ns#"
   xmlns:svg="http://www.w3.org/2000/svg"
   xmlns="http://www.w3.org/2000/svg"
   xmlns:sodipodi="http://sodipodi.sourceforge.net/DTD/sodipodi-0.dtd"
   xmlns:inkscape="http://www.inkscape.org/namespaces/inkscape"
   version="1.1"
   x="0px"
   y="0px"
   viewBox="0 0 396 395.99899"
   enable-background="new 0 0 512 512"
   xml:space="preserve"
   id="svg2"
   inkscape:version="0.91 r13725"
   sodipodi:docname="add_user.svg"
   width="396"
   height="395.99899"><metadata
     id="metadata22"><rdf:RDF><cc:Work
         rdf:about=""><dc:format>image/svg+xml</dc:format><dc:type
           rdf:resource="http://purl.org/dc/dcmitype/StillImage" /><dc:title></dc:title></cc:Work></rdf:RDF></metadata><defs
     id="defs20" /><sodipodi:namedview
     pagecolor="#ffffff"
     bordercolor="#666666"
     borderopacity="1"
     objecttolerance="10"
     gridtolerance="10"
     guidetolerance="10"
     inkscape:pageopacity="0"
     inkscape:pageshadow="2"
     inkscape:window-width="640"
     inkscape:window-height="480"
     id="namedview18"
     showgrid="false"
     fit-margin-top="0"
     fit-margin-left="0"
     fit-margin-right="0"
     fit-margin-bottom="0"
     inkscape:zoom="0.36875"
     inkscape:cx="198"
     inkscape:cy="134"
     inkscape:window-x="0"
     inkscape:window-y="0"
     inkscape:window-maximized="0"
     inkscape:current-layer="svg2" /><g
     id="g4"
     transform="translate(-58,-58.001)"><g
       id="g6"><path
         d="m 321.002,259.698 -9.577,7.454 11.737,3.084 c 21.47,5.643 40.659,14.097 57.034,25.129 l 6.705,-9.952 c -14.678,-9.889 -31.415,-17.824 -49.876,-23.658 23.615,-22.251 36.954,-52.922 36.954,-85.754 0,-65.065 -52.93,-118 -117.99,-118 -65.062,0 -117.995,52.935 -117.995,118 0,32.836 13.332,63.505 36.931,85.749 C 100.437,285.204 58,340.887 58,416 l 0,38 250,0 0,-12 -238,0 0,-26 c 0,-37.817 11.152,-69.929 33.146,-95.443 20.278,-23.524 49.895,-40.925 85.648,-50.321 l 11.737,-3.084 -9.577,-7.454 c -26.03,-20.26 -40.959,-50.767 -40.959,-83.698 0,-58.449 47.549,-106 105.995,-106 58.443,0 105.99,47.551 105.99,106 -0.001,32.923 -14.937,63.429 -40.978,83.698 z"
         id="path8"
         inkscape:connector-curvature="0" /><path
         d="m 384,314 c -38.598,0 -70,31.402 -70,70 0,38.598 31.402,70 70,70 38.598,0 70,-31.402 70,-70 0,-38.598 -31.402,-70 -70,-70 z m 0,128 c -31.981,0 -58,-26.019 -58,-58 0,-31.981 26.019,-58 58,-58 31.981,0 58,26.019 58,58 0,31.981 -26.019,58 -58,58 z"
         id="path10"
         inkscape:connector-curvature="0" /><polygon
         points="352,378 352,390 378,390 378,416 390,416 390,390 416,390 416,378 390,378 390,352 378,352 378,378 "
         id="polygon12" /></g></g></svg>