<?xml version="1.0" encoding="UTF-8" standalone="no"?>
<svg
   xmlns:dc="http://purl.org/dc/elements/1.1/"
   xmlns:cc="http://creativecommons.org/ns#"
   xmlns:rdf="http://www.w3.org/1999/02/22-rdf-syntax-ns#"
   xmlns:svg="http://www.w3.org/2000/svg"
   xmlns="http://www.w3.org/2000/svg"
   xmlns:sodipodi="http://sodipodi.sourceforge.net/DTD/sodipodi-0.dtd"
   xmlns:inkscape="http://www.inkscape.org/namespaces/inkscape"
   version="1.1"
   x="0px"
   y="0px"
   viewBox="0 0 99.769997 99.767998"
   enable-background="new 0 0 100 100"
   xml:space="preserve"
   id="svg2"
   inkscape:version="0.91 r13725"
   sodipodi:docname="close.svg"
   width="99.769997"
   height="99.767998"><metadata
     id="metadata18"><rdf:RDF><cc:Work
         rdf:about=""><dc:format>image/svg+xml</dc:format><dc:type
           rdf:resource="http://purl.org/dc/dcmitype/StillImage" /><dc:title /></cc:Work></rdf:RDF></metadata><defs
     id="defs16" /><sodipodi:namedview
     pagecolor="#ffffff"
     bordercolor="#666666"
     borderopacity="1"
     objecttolerance="10"
     gridtolerance="10"
     guidetolerance="10"
     inkscape:pageopacity="0"
     inkscape:pageshadow="2"
     inkscape:window-width="686"
     inkscape:window-height="480"
     id="namedview14"
     showgrid="false"
     fit-margin-top="0"
     fit-margin-left="0"
     fit-margin-right="0"
     fit-margin-bottom="0"
     inkscape:zoom="1.888"
     inkscape:cx="49.77"
     inkscape:cy="37.5"
     inkscape:window-x="0"
     inkscape:window-y="0"
     inkscape:window-maximized="0"
     inkscape:current-layer="svg2" /><rect
     style="fill:#ffffff"
     id="rect4135"
     width="83.156784"
     height="84.216103"
     x="8.474576"
     y="7.0773196" /><g
     id="g4"
     transform="translate(-0.23,-0.232)"
     style="fill:#000000"><path
       d="m 83.904,100 -67.579,0 C 7.45,100 0.23,92.78 0.23,83.904 l 0,-67.577 C 0.23,7.452 7.45,0.232 16.325,0.232 l 67.579,0 c 8.875,0 16.096,7.22 16.096,16.095 l 0,67.577 C 100,92.78 92.779,100 83.904,100 Z M 16.325,9.514 c -3.757,0 -6.813,3.056 -6.813,6.813 l 0,67.577 c 0,3.758 3.056,6.814 6.813,6.814 l 67.579,0 c 3.757,0 6.814,-3.057 6.814,-6.814 l 0,-67.577 c 0,-3.757 -3.058,-6.813 -6.814,-6.813 l -67.579,0 z"
       id="path6"
       fill="yellow"
       inkscape:connector-curvature="0"
       style="fill:#000000" /></g><polygon
     points="30.48,79.806 20.424,69.751 40.059,50.115 20.424,30.483 30.48,20.427 50.113,40.061 69.749,20.427 79.802,30.483 60.171,50.115 79.802,69.751 69.749,79.806 50.113,60.172 "
     id="polygon8"
     transform="translate(-0.23,-0.232)" /></svg>