<?xml version="1.0" encoding="UTF-8" standalone="no"?>
<svg
   xmlns:dc="http://purl.org/dc/elements/1.1/"
   xmlns:cc="http://creativecommons.org/ns#"
   xmlns:rdf="http://www.w3.org/1999/02/22-rdf-syntax-ns#"
   xmlns:svg="http://www.w3.org/2000/svg"
   xmlns="http://www.w3.org/2000/svg"
   xmlns:sodipodi="http://sodipodi.sourceforge.net/DTD/sodipodi-0.dtd"
   xmlns:inkscape="http://www.inkscape.org/namespaces/inkscape"
   version="1.1"
   x="0px"
   y="0px"
   viewBox="0 0 54.547874 54.550999"
   enable-background="new 0 0 100 100"
   xml:space="preserve"
   id="svg2"
   inkscape:version="0.91 r13725"
   sodipodi:docname="key.svg"
   width="54.547874"
   height="54.550999"><metadata
     id="metadata20"><rdf:RDF><cc:Work
         rdf:about=""><dc:format>image/svg+xml</dc:format><dc:type
           rdf:resource="http://purl.org/dc/dcmitype/StillImage" /><dc:title></dc:title></cc:Work></rdf:RDF></metadata><defs
     id="defs18" /><sodipodi:namedview
     pagecolor="#ffffff"
     bordercolor="#666666"
     borderopacity="1"
     objecttolerance="10"
     gridtolerance="10"
     guidetolerance="10"
     inkscape:pageopacity="0"
     inkscape:pageshadow="2"
     inkscape:window-width="640"
     inkscape:window-height="480"
     id="namedview16"
     showgrid="false"
     fit-margin-top="0"
     fit-margin-left="0"
     fit-margin-right="0"
     fit-margin-bottom="0"
     inkscape:zoom="1.888"
     inkscape:cx="27.274"
     inkscape:cy="14.775"
     inkscape:window-x="0"
     inkscape:window-y="0"
     inkscape:window-maximized="0"
     inkscape:current-layer="svg2" /><g
     display="none"
     id="g4"
     style="display:none"
     transform="translate(-22.726,-22.724)"><rect
       x="-853"
       y="-9.4589996"
       display="inline"
       width="1212"
       height="506.89801"
       id="rect6"
       style="display:inline;fill:#000000" /></g><g
     id="g8"
     transform="translate(-22.726,-22.724)"><path
       d="m 72.066,27.932 c -6.944,-6.944 -18.201,-6.944 -25.145,0 -5.031,5.031 -6.397,12.322 -4.138,18.6 l -0.041,-0.041 -20.016,21.903 8.881,8.881 3.781,-3.459 0.118,-5.664 5.939,0.124 1.562,-1.429 0.132,-6.328 6.635,0.138 3.726,-3.408 0.009,-0.009 -0.017,-0.017 c 6.272,2.246 13.549,0.877 18.573,-4.147 6.945,-6.943 6.945,-18.201 0.001,-25.144 z m -5.837,14.817 c -2.48,2.48 -6.5,2.48 -8.98,0 -2.48,-2.48 -2.48,-6.5 0,-8.98 2.48,-2.48 6.5,-2.48 8.98,0 2.48,2.48 2.48,6.501 0,8.98 z"
       id="path10"
       inkscape:connector-curvature="0" /></g></svg>