<?xml version="1.0" encoding="UTF-8" standalone="no"?>
<svg
   xmlns:dc="http://purl.org/dc/elements/1.1/"
   xmlns:cc="http://creativecommons.org/ns#"
   xmlns:rdf="http://www.w3.org/1999/02/22-rdf-syntax-ns#"
   xmlns:svg="http://www.w3.org/2000/svg"
   xmlns="http://www.w3.org/2000/svg"
   xmlns:sodipodi="http://sodipodi.sourceforge.net/DTD/sodipodi-0.dtd"
   xmlns:inkscape="http://www.inkscape.org/namespaces/inkscape"
   version="1.1"
   x="0px"
   y="0px"
   viewBox="0 0 89.699997 45.200001"
   xml:space="preserve"
   id="svg2"
   inkscape:version="0.91 r13725"
   sodipodi:docname="link.svg"
   width="89.699997"
   height="45.200001"><metadata
     id="metadata18"><rdf:RDF><cc:Work
         rdf:about=""><dc:format>image/svg+xml</dc:format><dc:type
           rdf:resource="http://purl.org/dc/dcmitype/StillImage" /><dc:title></dc:title></cc:Work></rdf:RDF></metadata><defs
     id="defs16" /><sodipodi:namedview
     pagecolor="#ffffff"
     bordercolor="#666666"
     borderopacity="1"
     objecttolerance="10"
     gridtolerance="10"
     guidetolerance="10"
     inkscape:pageopacity="0"
     inkscape:pageshadow="2"
     inkscape:window-width="640"
     inkscape:window-height="480"
     id="namedview14"
     showgrid="false"
     fit-margin-top="0"
     fit-margin-left="0"
     fit-margin-right="0"
     fit-margin-bottom="0"
     inkscape:zoom="1.888"
     inkscape:cx="60.116813"
     inkscape:cy="9.2"
     inkscape:window-x="0"
     inkscape:window-y="0"
     inkscape:window-maximized="0"
     inkscape:current-layer="svg2" /><g
     id="g4"
     transform="translate(-5.1,-26.5)"><path
       d="m 34.9,61.7 -9.2,0 C 19.9,61.7 15.1,57 15.1,51.1 l 0,-4 c 0,-5.8 4.7,-10.6 10.6,-10.6 l 16.5,0 c 5.8,0 10.6,4.7 10.6,10.6 l 0,4.5 c 0,2.8 2.2,5 5,5 2.8,0 5,-2.2 5,-5 l 0,-4.5 C 62.8,35.8 53.6,26.5 42.2,26.5 l -16.5,0 C 14.4,26.5 5.1,35.7 5.1,47.1 l 0,4 c 0,11.3 9.2,20.6 20.6,20.6 l 9.2,0 c 2.8,0 5,-2.2 5,-5 0,-2.8 -2.2,-5 -5,-5 z"
       id="path6"
       inkscape:connector-curvature="0" /><path
       d="m 74.2,26.5 -8,0 c -2.8,0 -5,2.2 -5,5 0,2.8 2.2,5 5,5 l 8,0 c 5.8,0 10.6,4.7 10.6,10.6 l 0,4 c 0,5.8 -4.7,10.6 -10.6,10.6 l -15.5,0 C 52.9,61.7 48.1,57 48.1,51.1 l 0,-3.5 c 0,-2.8 -2.2,-5 -5,-5 -2.8,0 -5,2.2 -5,5 l 0,3.5 c 0,11.3 9.2,20.6 20.6,20.6 l 15.5,0 c 11.3,0 20.6,-9.2 20.6,-20.6 l 0,-4 C 94.8,35.8 85.5,26.5 74.2,26.5 Z"
       id="path8"
       inkscape:connector-curvature="0" /></g></svg>