<?xml version="1.0" encoding="UTF-8" standalone="no"?>
<svg
   xmlns:dc="http://purl.org/dc/elements/1.1/"
   xmlns:cc="http://creativecommons.org/ns#"
   xmlns:rdf="http://www.w3.org/1999/02/22-rdf-syntax-ns#"
   xmlns:svg="http://www.w3.org/2000/svg"
   xmlns="http://www.w3.org/2000/svg"
   xmlns:sodipodi="http://sodipodi.sourceforge.net/DTD/sodipodi-0.dtd"
   xmlns:inkscape="http://www.inkscape.org/namespaces/inkscape"
   version="1.1"
   x="0px"
   y="0px"
   viewBox="0 0 500.00076 500"
   enable-background="new 0 0 500 500"
   xml:space="preserve"
   id="svg2"
   inkscape:version="0.91 r13725"
   sodipodi:docname="logout.svg"
   width="500.00076"
   height="500"><metadata
     id="metadata24"><rdf:RDF><cc:Work
         rdf:about=""><dc:format>image/svg+xml</dc:format><dc:type
           rdf:resource="http://purl.org/dc/dcmitype/StillImage" /><dc:title></dc:title></cc:Work></rdf:RDF></metadata><defs
     id="defs22" /><sodipodi:namedview
     pagecolor="#ffffff"
     bordercolor="#666666"
     borderopacity="1"
     objecttolerance="10"
     gridtolerance="10"
     guidetolerance="10"
     inkscape:pageopacity="0"
     inkscape:pageshadow="2"
     inkscape:window-width="1920"
     inkscape:window-height="1017"
     id="namedview20"
     showgrid="false"
     fit-margin-top="0"
     fit-margin-left="0"
     fit-margin-right="0"
     fit-margin-bottom="0"
     inkscape:zoom="0.7552"
     inkscape:cx="487.57527"
     inkscape:cy="-24.407735"
     inkscape:window-x="-8"
     inkscape:window-y="-8"
     inkscape:window-maximized="1"
     inkscape:current-layer="svg2" /><path
     d="M 303.69,500 39.31,500 C 17.634,500 0,482.365 0,460.689 L 0,39.311 C 0,17.635 17.634,0 39.31,0 L 303.69,0 C 325.365,0 343,17.635 343,39.311 L 343,115 c 0,5.523 -4.479,10 -10,10 -5.522,0 -10,-4.477 -10,-10 l 0,-75.689 C 323,28.663 314.338,20 303.69,20 L 39.31,20 C 28.662,20 20,28.663 20,39.311 L 20,460.69 C 20,471.338 28.662,480 39.31,480 l 264.38,0 c 10.647,0 19.311,-8.662 19.311,-19.311 l 0,-81.689 c 0,-5.521 4.478,-10 10,-10 5.521,0 10,4.479 10,10 l 0,81.689 C 343,482.365 325.365,500 303.69,500 Z"
     id="path4"
     inkscape:connector-curvature="0" /><g
     id="g6"><path
       d="m 141,250 c 0,-5.522 4.479,-10 10,-10 l 320,0 c 5.523,0 10,4.478 10,10 0,5.522 -4.477,10 -10,10 l -320,0 c -5.521,0 -10,-4.478 -10,-10 z"
       id="path8"
       inkscape:connector-curvature="0" /><g
       id="g10"><path
         d="m 482.93,256.644 -84.146,-84.146 c -3.905,-3.904 -3.905,-10.235 0,-14.142 3.905,-3.907 10.237,-3.905 14.142,0 l 84.146,84.146 c 3.905,3.905 3.905,10.237 0,14.143 -1.952,1.952 -4.512,2.929 -7.071,2.929 -2.559,-0.001 -5.12,-0.977 -7.071,-2.93 z"
         id="path12"
         inkscape:connector-curvature="0" /><path
         d="m 398.783,341.643 c -3.905,-3.906 -3.905,-10.238 0,-14.144 l 84.146,-84.145 c 3.905,-3.904 10.237,-3.904 14.143,0 3.905,3.906 3.905,10.238 0,14.143 l -84.146,84.146 c -1.951,1.952 -4.512,2.929 -7.07,2.929 -2.56,0 -5.118,-0.976 -7.073,-2.929 z"
         id="path14"
         inkscape:connector-curvature="0" /></g></g></svg>