<?xml version="1.0" encoding="UTF-8" standalone="no"?>
<svg
   xmlns:dc="http://purl.org/dc/elements/1.1/"
   xmlns:cc="http://creativecommons.org/ns#"
   xmlns:rdf="http://www.w3.org/1999/02/22-rdf-syntax-ns#"
   xmlns:svg="http://www.w3.org/2000/svg"
   xmlns="http://www.w3.org/2000/svg"
   xmlns:sodipodi="http://sodipodi.sourceforge.net/DTD/sodipodi-0.dtd"
   xmlns:inkscape="http://www.inkscape.org/namespaces/inkscape"
   version="1.1"
   x="0px"
   y="0px"
   viewBox="0.411 164.037 100.006 100.006"
   enable-background="new 0.411 164.037 100.006 100.006"
   xml:space="preserve"
   id="svg2"
   inkscape:version="0.91 r13725"
   sodipodi:docname="logo.svg"
   width="100.006"
   height="100.006"><metadata
     id="metadata22"><rdf:RDF><cc:Work
         rdf:about=""><dc:format>image/svg+xml</dc:format><dc:type
           rdf:resource="http://purl.org/dc/dcmitype/StillImage" /><dc:title></dc:title></cc:Work></rdf:RDF></metadata><defs
     id="defs20" /><sodipodi:namedview
     pagecolor="#ffffff"
     bordercolor="#666666"
     borderopacity="1"
     objecttolerance="10"
     gridtolerance="10"
     guidetolerance="10"
     inkscape:pageopacity="0"
     inkscape:pageshadow="2"
     inkscape:window-width="1920"
     inkscape:window-height="1017"
     id="namedview18"
     showgrid="false"
     fit-margin-top="0"
     fit-margin-left="0"
     fit-margin-right="0"
     fit-margin-bottom="0"
     inkscape:zoom="1.8878867"
     inkscape:cx="50.002998"
     inkscape:cy="-12.497749"
     inkscape:window-x="-8"
     inkscape:window-y="-8"
     inkscape:window-maximized="1"
     inkscape:current-layer="svg2" /><path
     d="m 17.874,227.30101 0,6.378 c 0,1.114 0.912,2.026 2.029,2.026 l 7.942,0 c 1.114,0 2.026,-0.912 2.026,-2.026 l 0,-6.378 c 0,-1.113 -0.912,-2.025 -2.026,-2.025 l -7.942,0 c -1.117,-0.001 -2.029,0.912 -2.029,2.025 z"
     id="path4"
     inkscape:connector-curvature="0"
     style="fill:#007aff;fill-opacity:1" /><path
     d="m 62.732,196.34401 0,-10.408 c 0,-1.114 -0.912,-2.025 -2.029,-2.025 l -21.193,0 c -1.118,0 -2.029,0.911 -2.029,2.025 l 0,10.408 c 0,1.113 0.911,2.029 2.029,2.029 l 21.193,0 c 1.117,0 2.029,-0.916 2.029,-2.029 z"
     id="path6"
     inkscape:connector-curvature="0"
     style="fill:#007aff;fill-opacity:1" /><path
     d="m 54.109,225.27501 -7.942,0 c -1.114,0 -2.026,0.912 -2.026,2.025 l 0,6.378 c 0,1.114 0.912,2.026 2.026,2.026 l 7.942,0 c 1.117,0 2.029,-0.912 2.029,-2.026 l 0,-6.378 c 0.001,-1.112 -0.911,-2.025 -2.029,-2.025 z"
     id="path8"
     inkscape:connector-curvature="0"
     style="fill:#007aff;fill-opacity:1" /><path
     d="m 80.373,225.275 -7.941,0 c -1.117,0 -2.025,0.912 -2.025,2.025 l 0,6.378 c 0,1.114 0.908,2.026 2.025,2.026 l 7.941,0 c 1.118,0 2.029,-0.912 2.029,-2.026 l 0,-6.378 c 0,-1.112 -0.911,-2.025 -2.029,-2.025 z"
     id="path10"
     inkscape:connector-curvature="0"
     style="fill:#007aff;fill-opacity:1" /><path
     d="m 50.414,164.037 c -27.616,0 -50.00299999,22.387 -50.00299999,50.006 0,27.613 22.38699999,50 50.00299999,50 27.615,0 50.003,-22.387 50.003,-50 0,-27.619 -22.388,-50.006 -50.003,-50.006 z m 29.959,76.738 -7.941,0 c -3.912,0 -7.098,-3.186 -7.098,-7.097 l 0,-6.378 c 0,-3.911 3.186,-7.093 7.098,-7.093 l 2.2,0 0,-7.24 c 0,-0.133 -0.118,-0.251 -0.251,-0.251 l -22.5,0 0,7.432 -0.006,0 0,0.06 2.234,0 c 3.915,0 7.097,3.182 7.097,7.093 l 0,6.378 c 0,3.911 -3.182,7.097 -7.097,7.097 l -7.942,0 c -3.912,0 -7.097,-3.186 -7.097,-7.097 l 0,-6.378 c 0,-3.911 3.185,-7.093 7.097,-7.093 l 2.161,0 0,-0.771 0.004,0 0,-6.721 -22.429,0 c -0.136,0 -0.255,0.118 -0.255,0.251 l 0,7.24 2.197,0 c 3.912,0 7.097,3.182 7.097,7.093 l 0,6.378 c 0,3.911 -3.186,7.097 -7.097,7.097 l -7.942,0 c -3.916,0 -7.097,-3.186 -7.097,-7.097 l 0,-6.378 c 0,-3.911 3.182,-7.093 7.097,-7.093 l 2.197,0 0,-7.24 c 0,-2.096 1.704,-3.8 3.803,-3.8 l 22.429,0 0,-5.729 -8.822,0 c -3.915,0 -7.097,-3.185 -7.097,-7.096 l 0,-10.408 c 0,-3.912 3.182,-7.098 7.097,-7.098 l 21.193,0 c 3.916,0 7.098,3.186 7.098,7.098 l 0,10.408 c 0,3.911 -3.182,7.096 -7.098,7.096 l -8.822,0 0,5.729 22.5,0 c 2.095,0 3.799,1.704 3.799,3.8 l 0,7.24 2.193,0 c 3.916,0 7.098,3.182 7.098,7.093 l 0,6.378 c 0,3.912 -3.182,7.097 -7.098,7.097 z"
     id="path12"
     inkscape:connector-curvature="0"
     style="fill:#00002c;fill-opacity:0.3046358" /></svg>