<?xml version="1.0" encoding="UTF-8" standalone="no"?>
<svg
   xmlns:dc="http://purl.org/dc/elements/1.1/"
   xmlns:cc="http://creativecommons.org/ns#"
   xmlns:rdf="http://www.w3.org/1999/02/22-rdf-syntax-ns#"
   xmlns:svg="http://www.w3.org/2000/svg"
   xmlns="http://www.w3.org/2000/svg"
   xmlns:sodipodi="http://sodipodi.sourceforge.net/DTD/sodipodi-0.dtd"
   xmlns:inkscape="http://www.inkscape.org/namespaces/inkscape"
   version="1.1"
   x="0px"
   y="0px"
   viewBox="0 0 78.418999 100"
   enable-background="new 0 0 100 100"
   xml:space="preserve"
   id="svg2"
   inkscape:version="0.91 r13725"
   sodipodi:docname="new_diagram.svg"
   width="78.418999"
   height="100"><metadata
     id="metadata22"><rdf:RDF><cc:Work
         rdf:about=""><dc:format>image/svg+xml</dc:format><dc:type
           rdf:resource="http://purl.org/dc/dcmitype/StillImage" /><dc:title></dc:title></cc:Work></rdf:RDF></metadata><defs
     id="defs20" /><sodipodi:namedview
     pagecolor="#ffffff"
     bordercolor="#666666"
     borderopacity="1"
     objecttolerance="10"
     gridtolerance="10"
     guidetolerance="10"
     inkscape:pageopacity="0"
     inkscape:pageshadow="2"
     inkscape:window-width="640"
     inkscape:window-height="480"
     id="namedview18"
     showgrid="false"
     fit-margin-top="0"
     fit-margin-left="0"
     fit-margin-right="0"
     fit-margin-bottom="0"
     inkscape:zoom="1.888"
     inkscape:cx="39.209"
     inkscape:cy="37.5"
     inkscape:window-x="0"
     inkscape:window-y="0"
     inkscape:window-maximized="0"
     inkscape:current-layer="svg2" /><path
     d="m 234.218,-152.089 -121.695,0 0,-40.565 c 0,-6.807 -5.538,-12.346 -12.345,-12.346 l -105.823,0 c -6.807,0 -12.346,5.54 -12.346,12.346 l 0,40.565 -135.809,0 c -6.807,0 -12.347,5.54 -12.347,12.346 l 0,51.626 c 0,6.807 5.54,12.346 12.347,12.346 l 21.521,0 10.436,363.371 c 0,8.057 6.018,19.4 19.4,19.4 l 276.891,0 c 12.917,0 19.398,-12.438 19.394,-19.063 l 13.913,-363.708 26.463,0 c 6.809,0 12.348,-5.539 12.348,-12.346 l 0,-51.626 c -0.002,-6.806 -5.543,-12.346 -12.348,-12.346 z m -234.571,-35.274 95.241,0 0,35.274 -95.241,0 0,-35.274 0,0 z m 176.592,474.236 c -0.231,0.771 -1.093,2.49 -1.791,2.49 l -276.89,0 c -0.623,0 -1.567,0 -1.767,-2.02 l -10.428,-363.113 304.749,0 -13.873,362.643 z m 52.688,-380.28 -33.313,0 -315.693,0 -28.43,0 0,-41.045 377.436,0 0,41.045 0,0 z"
     id="path4"
     inkscape:connector-curvature="0" /><g
     id="g6"
     transform="translate(-10.791,0)"><path
       d="m 66.118,24.51 19.863,0 0,-0.096 C 83.647,21.956 71.104,9.792 66.118,5.118 l 0,19.392 z"
       id="path8"
       inkscape:connector-curvature="0"
       style="fill:none" /><path
       d="m 44.278,75.767 -8.331,0 0,-7.574 c 0,-0.946 -0.767,-1.713 -1.713,-1.713 -0.945,0 -1.712,0.767 -1.712,1.713 l 0,7.574 -8.349,0 c -0.945,0 -1.712,0.767 -1.712,1.712 0,0.946 0.767,1.713 1.712,1.713 l 8.349,0 0,7.574 c 0,0.945 0.767,1.712 1.712,1.712 0.946,0 1.713,-0.767 1.713,-1.712 l 0,-7.574 8.331,0 c 0.945,0 1.712,-0.767 1.712,-1.713 0,-0.946 -0.766,-1.712 -1.712,-1.712 z"
       id="path10"
       inkscape:connector-curvature="0" /><path
       d="M 77.529,11.286 C 65.87,0 65.797,0 64.896,0 L 13.188,0 c -1.322,0 -2.397,1.055 -2.397,2.351 l 0,95.298 c 0,1.296 1.075,2.351 2.397,2.351 l 73.625,0 c 1.322,0 2.397,-1.055 2.397,-2.352 l 0,-74.064 c 0,-0.955 0,-0.992 -11.681,-12.298 z m 8.257,12.933 0,0.096 -19.863,0 0,-19.392 c 4.986,4.674 17.529,16.837 19.863,19.296 z m -71.571,72.356 0,-93.15 48.283,0 0,22.603 c 0,0.946 0.767,1.712 1.713,1.712 l 21.575,0 0,68.835 -71.571,0 0,0 z"
       id="path12"
       inkscape:connector-curvature="0" /></g></svg>