<?xml version="1.0" encoding="UTF-8" standalone="no"?>
<svg
   xmlns:dc="http://purl.org/dc/elements/1.1/"
   xmlns:cc="http://creativecommons.org/ns#"
   xmlns:rdf="http://www.w3.org/1999/02/22-rdf-syntax-ns#"
   xmlns:svg="http://www.w3.org/2000/svg"
   xmlns="http://www.w3.org/2000/svg"
   xmlns:sodipodi="http://sodipodi.sourceforge.net/DTD/sodipodi-0.dtd"
   xmlns:inkscape="http://www.inkscape.org/namespaces/inkscape"
   version="1.1"
   x="0px"
   y="0px"
   viewBox="0 0 85.039605 85.040039"
   enable-background="new 0 0 100 100"
   xml:space="preserve"
   id="svg2"
   inkscape:version="0.91 r13725"
   sodipodi:docname="open_erd.svg"
   width="85.039604"
   height="85.040039"><metadata
     id="metadata14"><rdf:RDF><cc:Work
         rdf:about=""><dc:format>image/svg+xml</dc:format><dc:type
           rdf:resource="http://purl.org/dc/dcmitype/StillImage" /><dc:title></dc:title></cc:Work></rdf:RDF></metadata><defs
     id="defs12" /><sodipodi:namedview
     pagecolor="#ffffff"
     bordercolor="#666666"
     borderopacity="1"
     objecttolerance="10"
     gridtolerance="10"
     guidetolerance="10"
     inkscape:pageopacity="0"
     inkscape:pageshadow="2"
     inkscape:window-width="1920"
     inkscape:window-height="1017"
     id="namedview10"
     showgrid="false"
     fit-margin-top="0"
     fit-margin-left="0"
     fit-margin-right="0"
     fit-margin-bottom="0"
     inkscape:zoom="1.888"
     inkscape:cx="42.521123"
     inkscape:cy="18.170998"
     inkscape:window-x="-8"
     inkscape:window-y="-8"
     inkscape:window-maximized="1"
     inkscape:current-layer="svg2" /><path
     d="m 84.824123,18.610859 c -0.196,-0.357661 -0.506,-0.566989 -0.829,-0.566989 l -7.278,0 0,-8.373135 c 0,-0.802657 -0.466,-1.45005 -1.044,-1.45005 l -34.583,-0.0042 C 40.584123,3.572445 37.688123,0 34.199123,0 l -18.906,0 c -3.843,0 -6.9700004,4.3349 -6.9700004,9.665149 l 0,8.380066 -7.277,0 c -0.32500005,0 -0.63300005,0.206556 -0.83000005,0.566989 -0.198,0.35766 -0.265,0.822064 -0.18,1.260129 L 12.538123,83.973991 c 0.124,0.632144 0.536,1.06605 1.009,1.06605 l 57.941,0 c 0.476,0 0.886,-0.43252 1.011,-1.06605 l 12.502,-64.101617 c 0.089,-0.438065 0.021,-0.902469 -0.177,-1.261515 z m -74.409,-8.944283 c 0,-3.729095 2.189,-6.766436 4.88,-6.766436 l 18.905,0 c 2.691,0 4.878,3.037341 4.878,6.771981 0,0.799884 0.47,1.445891 1.045,1.445891 l 34.503,0 0,6.927244 -64.211,0 0,-8.37868 z m 60.275,72.477525 -56.34,0 -11.9370004,-61.202904 80.2140004,0 -11.937,61.202904 z"
     id="path4"
     inkscape:connector-curvature="0"
     style="fill:#000000" /></svg>