<?xml version="1.0" encoding="UTF-8" standalone="no"?>
<svg
   xmlns:dc="http://purl.org/dc/elements/1.1/"
   xmlns:cc="http://creativecommons.org/ns#"
   xmlns:rdf="http://www.w3.org/1999/02/22-rdf-syntax-ns#"
   xmlns:svg="http://www.w3.org/2000/svg"
   xmlns="http://www.w3.org/2000/svg"
   xmlns:sodipodi="http://sodipodi.sourceforge.net/DTD/sodipodi-0.dtd"
   xmlns:inkscape="http://www.inkscape.org/namespaces/inkscape"
   version="1.1"
   x="0px"
   y="0px"
   viewBox="0 0 129.15199 183.843"
   enable-background="new 0 0 168.292 195"
   xml:space="preserve"
   id="svg2"
   inkscape:version="0.91 r13725"
   sodipodi:docname="png_download.svg"
   width="129.15199"
   height="183.843"><metadata
     id="metadata18"><rdf:RDF><cc:Work
         rdf:about=""><dc:format>image/svg+xml</dc:format><dc:type
           rdf:resource="http://purl.org/dc/dcmitype/StillImage" /><dc:title></dc:title></cc:Work></rdf:RDF></metadata><defs
     id="defs16" /><sodipodi:namedview
     pagecolor="#ffffff"
     bordercolor="#666666"
     borderopacity="1"
     objecttolerance="10"
     gridtolerance="10"
     guidetolerance="10"
     inkscape:pageopacity="0"
     inkscape:pageshadow="2"
     inkscape:window-width="640"
     inkscape:window-height="480"
     id="namedview14"
     showgrid="false"
     fit-margin-top="0"
     fit-margin-left="0"
     fit-margin-right="0"
     fit-margin-bottom="0"
     inkscape:zoom="0.96820513"
     inkscape:cx="58.849004"
     inkscape:cy="67.962998"
     inkscape:window-x="0"
     inkscape:window-y="0"
     inkscape:window-maximized="0"
     inkscape:current-layer="svg2" /><polygon
     points="118.328,156.685 98.561,156.685 98.561,129.244 81.257,129.244 81.257,156.685 62.143,156.685 90.236,189.838 "
     id="polygon4"
     transform="translate(-25.297,-5.995)" /><path
     d="m 34.468,74.675 c -1.24,0 -2.08,0.12 -2.52,0.24 l 0,7.959 c 0.52,0.12 1.16,0.16 2.04,0.16 3.239,0 5.239,-1.64 5.239,-4.399 0,-2.48 -1.719,-3.96 -4.759,-3.96 z"
     id="path6"
     inkscape:connector-curvature="0" /><path
     d="m 120.044,54.123 0,-14.744 c 0,-0.773 -0.324,-1.558 -0.866,-2.109 L 83.256,0.891 C 82.788,0.306 81.841,0 81.122,0 L 12.425,0 c -1.657,0 -3,1.343 -3,3 l 0,51.123 -9.425,0 0,59.57 9.425,0 0,25.232 c 0,1.658 1.343,3 3,3 l 38.535,0 0,-6 -35.535,0 0,-22.232 98.619,0 0,22.232 -35.78,0 0,6 38.78,0 c 1.657,0 3,-1.342 3,-3 l 0,-25.232 9.108,0 0,-59.57 -9.108,0 z m -35.922,-43.82 25.738,26.076 -25.738,0 0,-26.076 z M 42.786,84.874 c -2.08,1.959 -5.159,2.839 -8.758,2.839 -0.8,0 -1.52,-0.04 -2.08,-0.12 l 0,9.638 -6.039,0 0,-26.595 c 1.879,-0.32 4.519,-0.56 8.239,-0.56 3.759,0 6.438,0.72 8.238,2.16 1.72,1.359 2.879,3.599 2.879,6.239 0,2.64 -0.878,4.879 -2.479,6.399 z m 30.68,12.358 -6.399,0 -5.759,-10.398 c -1.6,-2.879 -3.36,-6.359 -4.68,-9.518 l -0.12,0.04 c 0.16,3.559 0.24,7.358 0.24,11.758 l 0,8.119 -5.599,0 0,-26.957 7.119,0 5.6,9.878 c 1.6,2.839 3.199,6.199 4.399,9.238 l 0.119,0 c -0.399,-3.559 -0.52,-7.199 -0.52,-11.238 l 0,-7.879 5.6,0 0,26.957 z m 29.799,-1.241 c -1.88,0.641 -5.438,1.52 -8.998,1.52 -4.919,0 -8.479,-1.239 -10.958,-3.639 -2.479,-2.32 -3.84,-5.839 -3.8,-9.798 0.04,-8.958 6.559,-14.078 15.397,-14.078 3.479,0 6.159,0.68 7.479,1.32 l -1.279,4.879 c -1.479,-0.64 -3.319,-1.16 -6.279,-1.16 -5.079,0 -8.918,2.879 -8.918,8.719 0,5.559 3.479,8.839 8.479,8.839 1.399,0 2.52,-0.16 2.999,-0.4 l 0,-5.639 -4.159,0 0,-4.759 10.038,0 0,14.196 z m 10.779,-41.868 -98.619,0 0,-48.123 62.697,0 0,33.378 c 0,1.657 1.343,3 3,3 l 32.922,0 0,11.745 z"
     id="path8"
     inkscape:connector-curvature="0" /></svg>