<?xml version="1.0" encoding="UTF-8" standalone="no"?>
<svg
   xmlns:dc="http://purl.org/dc/elements/1.1/"
   xmlns:cc="http://creativecommons.org/ns#"
   xmlns:rdf="http://www.w3.org/1999/02/22-rdf-syntax-ns#"
   xmlns:svg="http://www.w3.org/2000/svg"
   xmlns="http://www.w3.org/2000/svg"
   xmlns:sodipodi="http://sodipodi.sourceforge.net/DTD/sodipodi-0.dtd"
   xmlns:inkscape="http://www.inkscape.org/namespaces/inkscape"
   version="1.1"
   x="0px"
   y="0px"
   viewBox="0 0 336 400"
   enable-background="new 0 0 512 512"
   xml:space="preserve"
   id="svg2"
   inkscape:version="0.91 r13725"
   sodipodi:docname="reset.svg"
   width="336"
   height="400"><metadata
     id="metadata42"><rdf:RDF><cc:Work
         rdf:about=""><dc:format>image/svg+xml</dc:format><dc:type
           rdf:resource="http://purl.org/dc/dcmitype/StillImage" /><dc:title></dc:title></cc:Work></rdf:RDF></metadata><defs
     id="defs40" /><sodipodi:namedview
     pagecolor="#ffffff"
     bordercolor="#666666"
     borderopacity="1"
     objecttolerance="10"
     gridtolerance="10"
     guidetolerance="10"
     inkscape:pageopacity="0"
     inkscape:pageshadow="2"
     inkscape:window-width="640"
     inkscape:window-height="480"
     id="namedview38"
     showgrid="false"
     fit-margin-top="0"
     fit-margin-left="0"
     fit-margin-right="0"
     fit-margin-bottom="0"
     inkscape:zoom="0.36875"
     inkscape:cx="168"
     inkscape:cy="136"
     inkscape:window-x="0"
     inkscape:window-y="0"
     inkscape:window-maximized="0"
     inkscape:current-layer="svg2" /><g
     id="g4"
     transform="translate(-88,-56)"><g
       id="g6"><path
         d="m 368,456 -224,0 c -13.233,0 -24,-10.767 -24,-24 l 0,-240 16,0 0,240 c 0,4.411 3.589,8 8,8 l 224,0 c 4.411,0 8,-3.589 8,-8 l 0,-240 16,0 0,240 c 0,13.233 -10.767,24 -24,24 z"
         id="path8"
         inkscape:connector-curvature="0" /></g></g><g
     id="g10"
     transform="translate(-88,-56)"><g
       id="g12"><rect
         x="248"
         y="224"
         width="16"
         height="160"
         id="rect14" /></g></g><g
     id="g16"
     transform="translate(-88,-56)"><g
       id="g18"><rect
         x="184"
         y="224"
         width="16"
         height="160"
         id="rect20" /></g></g><g
     id="g22"
     transform="translate(-88,-56)"><g
       id="g24"><rect
         x="312"
         y="224"
         width="16"
         height="160"
         id="rect26" /></g></g><g
     id="g28"
     transform="translate(-88,-56)"><g
       id="g30"><path
         d="m 424,168 -336,0 0,-80 96,0 0,-32 144,0 0,32 96,0 0,80 z m -320,-16 304,0 0,-48 -96,0 0,-32 -112,0 0,32 -96,0 0,48 z"
         id="path32"
         inkscape:connector-curvature="0" /></g></g></svg>