<?xml version="1.0" encoding="UTF-8" standalone="no"?>
<svg
   xmlns:dc="http://purl.org/dc/elements/1.1/"
   xmlns:cc="http://creativecommons.org/ns#"
   xmlns:rdf="http://www.w3.org/1999/02/22-rdf-syntax-ns#"
   xmlns:svg="http://www.w3.org/2000/svg"
   xmlns="http://www.w3.org/2000/svg"
   xmlns:sodipodi="http://sodipodi.sourceforge.net/DTD/sodipodi-0.dtd"
   xmlns:inkscape="http://www.inkscape.org/namespaces/inkscape"
   version="1.1"
   x="0px"
   y="0px"
   viewBox="0 0 73.599998 73.699997"
   xml:space="preserve"
   id="svg2"
   inkscape:version="0.91 r13725"
   sodipodi:docname="save.svg"
   width="73.599998"
   height="73.699997"><metadata
     id="metadata18"><rdf:RDF><cc:Work
         rdf:about=""><dc:format>image/svg+xml</dc:format><dc:type
           rdf:resource="http://purl.org/dc/dcmitype/StillImage" /><dc:title></dc:title></cc:Work></rdf:RDF></metadata><defs
     id="defs16" /><sodipodi:namedview
     pagecolor="#ffffff"
     bordercolor="#666666"
     borderopacity="1"
     objecttolerance="10"
     gridtolerance="10"
     guidetolerance="10"
     inkscape:pageopacity="0"
     inkscape:pageshadow="2"
     inkscape:window-width="640"
     inkscape:window-height="480"
     id="namedview14"
     showgrid="false"
     fit-margin-top="0"
     fit-margin-left="0"
     fit-margin-right="0"
     fit-margin-bottom="0"
     inkscape:zoom="1.888"
     inkscape:cx="36.8"
     inkscape:cy="24.4"
     inkscape:window-x="0"
     inkscape:window-y="0"
     inkscape:window-maximized="0"
     inkscape:current-layer="svg2" /><g
     id="g4"
     transform="translate(-13.2,-13.2)"><path
       d="m 68.8,13.2 -5.2,0 -42.9,0 -7.5,0 0,73.7 7.5,0 58.6,0 7.5,0 0,-55.7 -18,-18 z m -45.8,2.3 38.2,0 0,26.7 c 0,0.6 -0.5,1.2 -1.2,1.2 l -35.8,0 C 23.6,43.4 23,42.9 23,42.2 l 0,-26.7 z m 54,69 -54,0 0,-29.9 c 0,-1.9 1.6,-3.5 3.5,-3.5 l 47,0 c 1.9,0 3.5,1.6 3.5,3.5 l 0,29.9 z m 7.5,0 -5.2,0 0,-29.9 c 0,-3.2 -2.6,-5.8 -5.8,-5.8 l -47,0 c -3.2,0 -5.8,2.6 -5.8,5.8 l 0,29.9 -5.2,0 0,-69 5.2,0 0,26.7 c 0,1.9 1.6,3.5 3.5,3.5 l 35.9,0 c 1.9,0 3.5,-1.6 3.5,-3.5 l 0,-26.7 4.3,0 16.7,16.7 0,52.3 z"
       id="path6"
       inkscape:connector-curvature="0" /><path
       d="m 27.4,40.7 9.3,0 c 1,0 1.7,-0.8 1.7,-1.7 l 0,-20 c 0,-1 -0.8,-1.7 -1.7,-1.7 l -9.3,0 c -1,0 -1.7,0.8 -1.7,1.7 l 0,20 c -0.1,0.9 0.7,1.7 1.7,1.7 z m 0.6,-21.2 8.1,0 0,18.9 -8.1,0 0,-18.9 z"
       id="path8"
       inkscape:connector-curvature="0" /></g></svg>