<?xml version="1.0" encoding="UTF-8" standalone="no"?>
<svg
   xmlns:dc="http://purl.org/dc/elements/1.1/"
   xmlns:cc="http://creativecommons.org/ns#"
   xmlns:rdf="http://www.w3.org/1999/02/22-rdf-syntax-ns#"
   xmlns:svg="http://www.w3.org/2000/svg"
   xmlns="http://www.w3.org/2000/svg"
   xmlns:sodipodi="http://sodipodi.sourceforge.net/DTD/sodipodi-0.dtd"
   xmlns:inkscape="http://www.inkscape.org/namespaces/inkscape"
   version="1.1"
   x="0px"
   y="0px"
   viewBox="0 0 30 30"
   xml:space="preserve"
   id="svg2"
   inkscape:version="0.91 r13725"
   sodipodi:docname="select_all.svg"
   width="30"
   height="30"><metadata
     id="metadata16"><rdf:RDF><cc:Work
         rdf:about=""><dc:format>image/svg+xml</dc:format><dc:type
           rdf:resource="http://purl.org/dc/dcmitype/StillImage" /><dc:title></dc:title></cc:Work></rdf:RDF></metadata><defs
     id="defs14" /><sodipodi:namedview
     pagecolor="#ffffff"
     bordercolor="#666666"
     borderopacity="1"
     objecttolerance="10"
     gridtolerance="10"
     guidetolerance="10"
     inkscape:pageopacity="0"
     inkscape:pageshadow="2"
     inkscape:window-width="1007"
     inkscape:window-height="480"
     id="namedview12"
     showgrid="false"
     fit-margin-top="0"
     fit-margin-left="0"
     fit-margin-right="0"
     fit-margin-bottom="0"
     inkscape:zoom="1.888"
     inkscape:cx="50"
     inkscape:cy="37.5"
     inkscape:window-x="0"
     inkscape:window-y="0"
     inkscape:window-maximized="0"
     inkscape:current-layer="svg2" /><g
     id="g4"
     transform="scale(0.3,0.3)"><path
       d="m 93.164,86.328 6.836,0 0,6.836 0,6.836 -6.836,0 -6.836,0 0,-6.836 6.836,0 0,-6.836 z m 0,-7.91 6.836,0 0,-13.672 -6.836,0 0,13.672 z m 0,-21.582 6.836,0 0,-13.672 -6.836,0 0,13.672 z m 0,-21.582 6.836,0 0,-13.672 -6.836,0 0,13.672 z M 6.836,6.836 l 6.836,0 L 13.672,0 6.836,0 0,0 l 0,6.836 0,6.836 6.836,0 0,-6.836 z M 93.164,0 l -6.836,0 0,6.836 6.836,0 0,6.836 6.836,0 0,-6.836 L 100,0 93.164,0 Z m -57.91,0 -13.672,0 0,6.836 13.672,0 0,-6.836 z m 21.582,0 -13.672,0 0,6.836 13.672,0 0,-6.836 z m 21.582,0 -13.672,0 0,6.836 13.672,0 0,-6.836 z m -13.672,100 13.672,0 0,-6.836 -13.672,0 0,6.836 z m -57.91,-78.418 -6.836,0 0,13.672 6.836,0 0,-13.672 z m 0,21.582 -6.836,0 0,13.672 6.836,0 0,-13.672 z m 0,21.582 -6.836,0 0,13.672 6.836,0 0,-13.672 z m 0,35.254 6.836,0 0,-6.836 -6.836,0 0,-6.836 -6.836,0 0,6.836 0,6.836 6.836,0 z m 36.328,0 13.672,0 0,-6.836 -13.672,0 0,6.836 z m -21.582,0 13.672,0 0,-6.836 -13.672,0 0,6.836 z m 56.969,-78.551 -57.101,0 0,57.102 57.101,0 0,-57.102 z m -53.195,3.906 49.289,0 0,49.289 -49.289,0 0,-49.289 z"
       id="path6"
       inkscape:connector-curvature="0" /></g></svg>