<?xml version="1.0" encoding="UTF-8" standalone="no"?>
<svg
   xmlns:dc="http://purl.org/dc/elements/1.1/"
   xmlns:cc="http://creativecommons.org/ns#"
   xmlns:rdf="http://www.w3.org/1999/02/22-rdf-syntax-ns#"
   xmlns:svg="http://www.w3.org/2000/svg"
   xmlns="http://www.w3.org/2000/svg"
   xmlns:sodipodi="http://sodipodi.sourceforge.net/DTD/sodipodi-0.dtd"
   xmlns:inkscape="http://www.inkscape.org/namespaces/inkscape"
   version="1.1"
   x="0px"
   y="0px"
   viewBox="0 0 63.549042 89.999748"
   enable-background="new 0 0 100 100"
   xml:space="preserve"
   id="svg2"
   inkscape:version="0.91 r13725"
   sodipodi:docname="sql_download.svg"
   width="63.549042"
   height="89.999748"><metadata
     id="metadata24"><rdf:RDF><cc:Work
         rdf:about=""><dc:format>image/svg+xml</dc:format><dc:type
           rdf:resource="http://purl.org/dc/dcmitype/StillImage" /><dc:title></dc:title></cc:Work></rdf:RDF></metadata><defs
     id="defs22" /><sodipodi:namedview
     pagecolor="#ffffff"
     bordercolor="#666666"
     borderopacity="1"
     objecttolerance="10"
     gridtolerance="10"
     guidetolerance="10"
     inkscape:pageopacity="0"
     inkscape:pageshadow="2"
     inkscape:window-width="640"
     inkscape:window-height="480"
     id="namedview20"
     showgrid="false"
     fit-margin-top="0"
     fit-margin-left="0"
     fit-margin-right="0"
     fit-margin-bottom="0"
     inkscape:zoom="1.888"
     inkscape:cx="31.774041"
     inkscape:cy="32.49975"
     inkscape:window-x="0"
     inkscape:window-y="0"
     inkscape:window-maximized="0"
     inkscape:current-layer="svg2" /><g
     id="g4"
     transform="translate(-18.225959,-5)"><path
       d="m 64.75,76.875 -4.95,0 c -0.3,0 -0.54,-0.242 -0.54,-0.539 l 0,-10.641 c 0,-1.006 -0.817,-1.823 -1.823,-1.823 l -9.962,0 c -1.008,0 -1.822,0.817 -1.822,1.823 l 0,10.641 c 0,0.297 -0.243,0.539 -0.54,0.539 l -4.949,0 c -1.006,0 -1.331,0.651 -0.723,1.453 l 11.918,16.068 c 0.605,0.805 1.59,0.805 2.197,0 L 65.474,78.328 c 0.605,-0.802 0.284,-1.453 -0.724,-1.453 z"
       id="path6"
       inkscape:connector-curvature="0" /><path
       d="M 68.685,5.515 C 68.401,5.231 67.861,5 67.459,5 L 24.516,5 c -0.804,0 -1.455,0.654 -1.452,1.458 l 0,26.788 c 0,0.403 0.329,0.73 0.73,0.73 l 2.286,0 c 0.404,0 0.729,-0.327 0.729,-0.73 l 0,-24.052 c 0,-0.297 0.242,-0.54 0.539,-0.54 l 37.086,0 c 0.3,0 0.539,0.243 0.542,0.54 l 0.003,11.041 c -0.009,0.806 0.641,1.458 1.447,1.458 l 11.139,0 c 0.297,0 0.54,0.242 0.54,0.542 l 0,59.497 c 0,0.297 -0.243,0.539 -0.54,0.539 L 65.76,82.264 c -0.3,-0.003 -0.684,0.193 -0.86,0.433 l -2.042,2.764 c -0.174,0.24 -0.076,0.437 0.224,0.437 l 17.192,0.027 c 0.807,0 1.461,-0.651 1.461,-1.455 l 0.04,-65.17 c 0,-0.403 -0.232,-0.959 -0.516,-1.245 L 68.685,5.515 Z"
       id="path8"
       inkscape:connector-curvature="0" /><path
       d="m 26.08,63.766 -2.286,0 c -0.401,0 -0.73,0.324 -0.73,0.728 l 0,19.976 c -0.003,0.804 0.648,1.455 1.452,1.455 l 17.223,-0.027 c 0.3,0 0.397,-0.196 0.221,-0.437 L 39.922,82.697 C 39.744,82.458 39.36,82.261 39.061,82.264 l -11.712,0.008 c -0.297,0 -0.539,-0.242 -0.539,-0.539 l 0,-17.24 C 26.809,64.09 26.484,63.766 26.08,63.766 Z"
       id="path10"
       inkscape:connector-curvature="0" /><path
       d="m 42.997,44.636 c -1.349,0 -1.965,1.714 -1.965,3.306 -0.008,1.222 0.311,2.246 0.872,2.813 0.303,0.306 0.665,0.458 1.077,0.458 1.437,0 1.945,-1.79 1.945,-3.322 10e-4,-1.569 -0.604,-3.255 -1.929,-3.255 z"
       id="path12"
       inkscape:connector-curvature="0" /><path
       d="m 68.184,59.225 0,-20.708 c 0,-0.814 -0.657,-1.461 -1.461,-1.461 l -47.044,0 c -0.811,0 -1.459,0.646 -1.453,1.461 l 0.008,20.708 c 0.003,0.815 0.66,1.458 1.469,1.458 l 47.021,0 c 0.802,0 1.46,-0.643 1.46,-1.458 z M 30.209,54.938 c -1.37,0 -3.104,-0.482 -3.799,-0.915 l -0.374,-0.232 0.559,-3.387 0.821,0.474 c 0.548,0.316 1.821,0.668 2.776,0.668 0.657,0 1.05,-0.308 1.05,-0.82 0,-0.227 0,-0.535 -1.392,-1.096 -2.23,-0.875 -3.364,-2.281 -3.364,-4.184 0,-2.532 1.943,-4.301 4.727,-4.301 1.275,0 2.7,0.381 3.449,0.763 l 0.478,0.242 -0.904,3.276 -0.726,-0.392 c -0.354,-0.191 -1.26,-0.497 -2.183,-0.497 -0.767,0 -0.826,0.516 -0.826,0.674 0,0.267 0,0.458 1.516,1.104 2.178,0.904 3.191,2.246 3.191,4.214 0,2.034 -1.309,4.409 -4.999,4.409 z m 17.691,1.66 -0.607,-0.193 c -1.508,-0.479 -2.797,-0.979 -4.312,-1.679 -0.145,-0.061 -0.321,-0.099 -0.524,-0.111 -2.635,-0.191 -5.292,-2.301 -5.292,-6.585 0,-4.001 2.426,-6.795 5.895,-6.795 3.377,0 5.734,2.695 5.734,6.552 0,2.085 -0.665,3.887 -1.796,5.005 0.445,0.11 0.895,0.212 1.314,0.308 l 0.729,0.163 -1.141,3.335 z m 12.472,-1.848 -9.46,0.014 0,-13.432 3.928,0 0,9.878 5.532,0 0,3.54 z"
       id="path14"
       inkscape:connector-curvature="0" /></g></svg>